<?xml version="1.0" encoding="UTF-8" standalone="no"?>
<svg
   class="svglite"
   width="124.44094pt"
   height="144pt"
   viewBox="0 0 124.44094 144"
   version="1.1"
   id="svg28"
   sodipodi:docname="sticker_glebrt.svg"
   xml:space="preserve"
   inkscape:version="1.4.2 (ebf0e940, 2025-05-08)"
   inkscape:export-filename="sticker_glebrt.png"
   inkscape:export-xdpi="300"
   inkscape:export-ydpi="300"
   xmlns:inkscape="http://www.inkscape.org/namespaces/inkscape"
   xmlns:sodipodi="http://sodipodi.sourceforge.net/DTD/sodipodi-0.dtd"
   xmlns="http://www.w3.org/2000/svg"
   xmlns:svg="http://www.w3.org/2000/svg"
   xmlns:rdf="http://www.w3.org/1999/02/22-rdf-syntax-ns#"
   xmlns:cc="http://creativecommons.org/ns#"><sodipodi:namedview
     id="namedview28"
     pagecolor="#ffffff"
     bordercolor="#000000"
     borderopacity="0.25"
     inkscape:showpageshadow="2"
     inkscape:pageopacity="0.0"
     inkscape:pagecheckerboard="true"
     inkscape:deskcolor="#d1d1d1"
     inkscape:document-units="pt"
     showguides="true"
     inkscape:zoom="4"
     inkscape:cx="46.25"
     inkscape:cy="104.25"
     inkscape:window-width="1920"
     inkscape:window-height="1027"
     inkscape:window-x="0"
     inkscape:window-y="25"
     inkscape:window-maximized="0"
     inkscape:current-layer="svg28"
     showgrid="false"><sodipodi:guide
       position="-7.8190046,107.83711"
       orientation="0,-1"
       id="guide28"
       inkscape:locked="false" /><sodipodi:guide
       position="62.220501,146.0625"
       orientation="-1,0"
       id="guide29"
       inkscape:locked="false"
       inkscape:label=""
       inkscape:color="rgb(0,134,229)" /><inkscape:grid
       id="grid29"
       units="pt"
       originx="0"
       originy="0"
       spacingx="1"
       spacingy="1"
       empcolor="#0099e5"
       empopacity="0.30196078"
       color="#0099e5"
       opacity="0.14902"
       empspacing="5"
       dotted="false"
       gridanglex="30"
       gridanglez="30"
       visible="false" /><sodipodi:guide
       position="0,144"
       orientation="0,165.92125"
       id="guide30"
       inkscape:locked="false" /><sodipodi:guide
       position="124.44095,144"
       orientation="192,0"
       id="guide31"
       inkscape:locked="false" /><sodipodi:guide
       position="124.44095,4.2632565e-14"
       orientation="0,-165.92125"
       id="guide32"
       inkscape:locked="false" /><sodipodi:guide
       position="0,4.2632565e-14"
       orientation="-192,0"
       id="guide33"
       inkscape:locked="false" /></sodipodi:namedview><defs
     id="defs1"><style
       type="text/css"
       id="style1"><![CDATA[
    .svglite line, .svglite polyline, .svglite polygon, .svglite path, .svglite rect, .svglite circle {
      fill: none;
      stroke: #000000;
      stroke-linecap: round;
      stroke-linejoin: round;
      stroke-miterlimit: 10.00;
    }
    .svglite text {
      white-space: pre;
    }
  ]]></style></defs><defs
     id="defs2"><clipPath
       id="cpMC4wMHwxMjQuNDR8MC4wMHwxNDQuMDA="><rect
         x="0"
         y="0"
         width="124.44"
         height="144"
         id="rect2" /></clipPath></defs><defs
     id="defs3"><clipPath
       id="cpMC4wMHwxMjQuNDR8MC4xNHwxNDMuODY="><rect
         x="0"
         y="0.14"
         width="124.44"
         height="143.71001"
         id="rect3" /></clipPath></defs><defs
     id="defs5"><clipPath
       id="cpMC4wMHwxMjQuNDR8MC4xNHwxNDQuMDA="><rect
         x="0"
         y="0.14"
         width="124.44"
         height="143.85001"
         id="rect5" /></clipPath></defs><polygon
     points="62.15,142.59 123.22,107.33 123.22,36.81 62.15,1.55 1.08,36.81 1.08,107.33 "
     style="display:inline;fill:#ffffff;stroke:none;stroke-width:2.56;stroke-linecap:butt"
     id="polygon6"
     inkscape:label="background"
     sodipodi:insensitive="true" /><polygon
     points="123.22,36.81 62.15,1.55 1.08,36.81 1.08,107.33 62.15,142.59 123.22,107.33 "
     style="display:inline;stroke:#cc4448;stroke-width:2.56;stroke-linecap:butt;stroke-opacity:1"
     id="polygon7"
     inkscape:label="hexagon"
     sodipodi:insensitive="true" /><text
     xml:space="preserve"
     style="font-size:28px;white-space:pre;display:none;opacity:1;fill:#000000;stroke-width:0.75"
     x="61.940472"
     y="79.587997"
     id="text28"
     inkscape:label="tecanr editable"
     sodipodi:insensitive="true"><tspan
       sodipodi:role="line"
       id="tspan28"
       style="font-style:normal;font-variant:normal;font-weight:bold;font-stretch:normal;font-size:34px;font-family:'Fira Sans';-inkscape-font-specification:'Fira Sans, Bold';font-variant-ligatures:normal;font-variant-caps:normal;font-variant-numeric:normal;font-variant-east-asian:normal;text-align:center;text-anchor:middle;stroke-width:0.75"
       x="0"
       y="0">glebrt</tspan></text><text
     xml:space="preserve"
     style="font-style:normal;font-variant:normal;font-weight:600;font-stretch:normal;font-size:7px;font-family:Raleway;-inkscape-font-specification:'Raleway Semi-Bold';text-align:center;text-anchor:middle;white-space:pre;display:none;opacity:1;fill:#000000;stroke-width:0.75"
     x="-15.644328"
     y="151.59846"
     id="text29"
     transform="rotate(-30)"
     inkscape:label="glebsite editable"
     sodipodi:insensitive="true"><tspan
       sodipodi:role="line"
       id="tspan29"
       style="font-style:normal;font-variant:normal;font-weight:500;font-stretch:normal;font-size:6px;font-family:'Fira Sans';-inkscape-font-specification:'Fira Sans, Medium';font-variant-ligatures:normal;font-variant-caps:normal;font-variant-numeric:normal;font-variant-east-asian:normal;text-align:start;text-anchor:start;stroke-width:0.75"
       x="0"
       y="0">github.com/gl-eb/glebrt</tspan></text><metadata
     id="metadata33"><rdf:RDF><cc:Work
         rdf:about=""><cc:license
           rdf:resource="http://creativecommons.org/publicdomain/zero/1.0/" /></cc:Work><cc:License
         rdf:about="http://creativecommons.org/publicdomain/zero/1.0/"><cc:permits
           rdf:resource="http://creativecommons.org/ns#Reproduction" /><cc:permits
           rdf:resource="http://creativecommons.org/ns#Distribution" /><cc:permits
           rdf:resource="http://creativecommons.org/ns#DerivativeWorks" /></cc:License></rdf:RDF></metadata><path
     style="font-weight:500;font-size:6px;font-family:'Fira Sans';-inkscape-font-specification:'Fira Sans, Medium';white-space:pre;display:inline;fill:#000000;fill-opacity:1;stroke:none;stroke-width:0.75"
     d="m -12.614328,147.98046 c -0.384,0.204 -0.732,0.372 -1.482,0.354 -0.768,0 -1.314,0.45 -1.314,1.14 0,0.408 0.168,0.69 0.558,0.894 -0.234,0.144 -0.372,0.366 -0.372,0.588 0,0.33 0.27,0.612 0.906,0.612 h 0.48 c 0.354,0 0.54,0.144 0.54,0.378 0,0.252 -0.18,0.42 -0.798,0.42 -0.63,0 -0.768,-0.138 -0.768,-0.456 h -0.69 c 0,0.636 0.318,0.996 1.446,0.996 1.038,0 1.584,-0.378 1.584,-1.014 0,-0.522 -0.456,-0.9 -1.158,-0.9 h -0.486 c -0.318,0 -0.384,-0.108 -0.384,-0.222 0,-0.096 0.054,-0.18 0.132,-0.234 0.12,0.036 0.24,0.048 0.378,0.048 0.798,0 1.278,-0.45 1.278,-1.068 0,-0.396 -0.192,-0.642 -0.576,-0.816 0.378,0 0.678,-0.024 0.918,-0.108 z m -1.47,0.876 c 0.384,0 0.576,0.198 0.576,0.6 0,0.402 -0.198,0.63 -0.564,0.63 -0.354,0 -0.564,-0.24 -0.564,-0.624 0,-0.366 0.204,-0.606 0.552,-0.606 z m 2.490004,-2.04 c -0.282,0 -0.48,0.204 -0.48,0.468 0,0.258 0.198,0.462 0.48,0.462 0.288,0 0.486,-0.204 0.486,-0.462 0,-0.264 -0.198,-0.468 -0.486,-0.468 z m 0.39,1.608 h -0.768 v 3.174 h 0.768 z m 2.4599991,2.532 c -0.138,0.078 -0.258,0.114 -0.378,0.114 -0.234,0 -0.336,-0.126 -0.336,-0.438 v -1.656 h 0.66 l 0.078,-0.552 h -0.738 v -0.792 l -0.7680001,0.09 v 0.702 h -0.498 v 0.552 h 0.498 v 1.674 c 0,0.678 0.3300001,1.032 0.9540001,1.038 0.282,0 0.57,-0.078 0.798,-0.24 z m 2.382,-2.622 c -0.384,0 -0.678,0.168 -0.924,0.468 v -1.722 l -0.768,0.078 v 4.44 h 0.768 v -2.214 c 0.186,-0.288 0.396,-0.474 0.666,-0.474 0.234,0 0.39,0.114 0.39,0.51 v 2.178 h 0.768 v -2.298 c 0,-0.6 -0.336,-0.966 -0.9,-0.966 z m 4.2900013,0.09 h -0.768 v 2.232 c -0.162,0.276 -0.378,0.45 -0.642,0.45 -0.264,0 -0.384,-0.126 -0.384,-0.498 v -2.184 h -0.768 v 2.28 c 0,0.612 0.306,0.984 0.882,0.984 0.438,0 0.738,-0.174 0.972,-0.534 l 0.042,0.444 h 0.666 z m 2.54399484,-0.09 c -0.366,0 -0.672,0.168 -0.876,0.45 v -1.716 l -0.76800004,0.084 v 4.446 h 0.67800004 l 0.048,-0.324 c 0.204,0.258 0.492,0.414 0.84,0.414 0.77999996,0 1.25399996,-0.69 1.25399996,-1.68 0,-1.062 -0.438,-1.674 -1.17599996,-1.674 z m -0.288,2.778 c -0.24,0 -0.45,-0.138 -0.588,-0.366 v -1.404 c 0.15,-0.246 0.354,-0.432 0.63,-0.432 0.366,0 0.618,0.252 0.618,1.098 0,0.798 -0.27,1.104 -0.66,1.104 z m 2.38200286,-0.396 c -0.27,0 -0.48,0.216 -0.48,0.486 0,0.264 0.21,0.486 0.48,0.486 0.276,0 0.492,-0.222 0.492,-0.486 0,-0.27 -0.216,-0.486 -0.492,-0.486 z m 2.4059972,-2.382 c -0.912,0 -1.482,0.69 -1.482,1.704 0,1.014 0.57,1.65 1.488,1.65 0.408,0 0.738,-0.132 1.026,-0.366 l -0.342,-0.486 c -0.234,0.15 -0.402,0.228 -0.642,0.228 -0.432,0 -0.714,-0.27 -0.714,-1.038 0,-0.762 0.27,-1.086 0.714,-1.086 0.24,0 0.432,0.072 0.642,0.228 l 0.342,-0.462 c -0.3,-0.258 -0.618,-0.372 -1.032,-0.372 z m 2.7960075,0 c -0.942,0 -1.5,0.678 -1.5,1.674 0,1.044 0.558,1.68 1.494,1.68 0.936,0 1.494,-0.678 1.494,-1.68 0,-1.038 -0.552,-1.674 -1.488,-1.674 z m 0,0.582 c 0.444,0 0.678,0.336 0.678,1.092 0,0.756 -0.234,1.098 -0.684,1.098 -0.45,0 -0.684,-0.336 -0.684,-1.098 0,-0.75 0.24,-1.092 0.69,-1.092 z m 5.5619982,-0.582 c -0.42,0 -0.714,0.204 -0.954,0.534 -0.12,-0.336 -0.396,-0.534 -0.768,-0.534 -0.402,0 -0.69,0.186 -0.918,0.504 l -0.06,-0.414 H 9.9636766 v 3.174 h 0.7680004 v -2.208 c 0.174,-0.294 0.336,-0.48 0.606,-0.48 0.186,0 0.348,0.114 0.348,0.51 v 2.178 h 0.768 v -2.208 c 0.174,-0.294 0.336,-0.48 0.6,-0.48 0.192,0 0.348,0.114 0.348,0.51 v 2.178 h 0.768 v -2.298 c 0,-0.6 -0.336,-0.966 -0.84,-0.966 z m 3.185996,-1.608 -1.404,5.364 0.666,0.156 1.398,-5.37 z m 4.037998,1.254 c -0.384,0.204 -0.732,0.372 -1.482,0.354 -0.768,0 -1.314,0.45 -1.314,1.14 0,0.408 0.168,0.69 0.558,0.894 -0.234,0.144 -0.372,0.366 -0.372,0.588 0,0.33 0.27,0.612 0.906,0.612 h 0.48 c 0.354,0 0.54,0.144 0.54,0.378 0,0.252 -0.18,0.42 -0.798,0.42 -0.63,0 -0.768,-0.138 -0.768,-0.456 h -0.69 c 0,0.636 0.318,0.996 1.446,0.996 1.038,0 1.584,-0.378 1.584,-1.014 0,-0.522 -0.456,-0.9 -1.158,-0.9 h -0.486 c -0.318,0 -0.384,-0.108 -0.384,-0.222 0,-0.096 0.054,-0.18 0.132,-0.234 0.12,0.036 0.24,0.048 0.378,0.048 0.798,0 1.278,-0.45 1.278,-1.068 0,-0.396 -0.192,-0.642 -0.576,-0.816 0.378,0 0.678,-0.024 0.918,-0.108 z m -1.47,0.876 c 0.384,0 0.576,0.198 0.576,0.6 0,0.402 -0.198,0.63 -0.564,0.63 -0.354,0 -0.564,-0.24 -0.564,-0.624 0,-0.366 0.204,-0.606 0.552,-0.606 z m 2.850004,2.832 c 0.198,0 0.384,-0.048 0.516,-0.108 l -0.168,-0.54 c -0.048,0.018 -0.108,0.03 -0.174,0.03 -0.132,0 -0.18,-0.072 -0.18,-0.222 v -3.78 l -0.768,0.084 v 3.72 c 0,0.522 0.288,0.816 0.774,0.816 z m 0.846004,-1.662 h 1.812 v -0.612 h -1.812 z m 5.184004,-0.09 c 0,-1.002 -0.51,-1.602 -1.398,-1.602 -0.9,0 -1.41,0.732 -1.41,1.698 0,1.002 0.528,1.656 1.512,1.656 0.48,0 0.864,-0.174 1.176,-0.426 l -0.318,-0.438 c -0.276,0.192 -0.51,0.282 -0.792,0.282 -0.42,0 -0.72,-0.21 -0.78,-0.858 h 1.992 c 0.006,-0.084 0.018,-0.21 0.018,-0.312 z m -0.762,-0.186 h -1.248 c 0.042,-0.63 0.27,-0.87 0.63,-0.87 0.432,0 0.618,0.312 0.618,0.834 z m 3.083999,-1.416 c -0.366,0 -0.672,0.168 -0.876,0.45 v -1.716 l -0.768,0.084 v 4.446 h 0.678 l 0.048,-0.324 c 0.204,0.258 0.492,0.414 0.84,0.414 0.78,0 1.254,-0.69 1.254,-1.68 0,-1.062 -0.438,-1.674 -1.176,-1.674 z m -0.288,2.778 c -0.24,0 -0.45,-0.138 -0.588,-0.366 v -1.404 c 0.15,-0.246 0.354,-0.432 0.63,-0.432 0.366,0 0.618,0.252 0.618,1.098 0,0.798 -0.27,1.104 -0.66,1.104 z m 3.660004,-4.386 -1.404,5.364 0.666,0.156 1.398,-5.37 z m 4.037999,1.254 c -0.384,0.204 -0.732,0.372 -1.482,0.354 -0.768,0 -1.314,0.45 -1.314,1.14 0,0.408 0.168,0.69 0.558,0.894 -0.234,0.144 -0.372,0.366 -0.372,0.588 0,0.33 0.27,0.612 0.906,0.612 h 0.48 c 0.354,0 0.54,0.144 0.54,0.378 0,0.252 -0.18,0.42 -0.798,0.42 -0.63,0 -0.768,-0.138 -0.768,-0.456 h -0.69 c 0,0.636 0.318,0.996 1.446,0.996 1.038,0 1.584,-0.378 1.584,-1.014 0,-0.522 -0.456,-0.9 -1.158,-0.9 h -0.486 c -0.318,0 -0.384,-0.108 -0.384,-0.222 0,-0.096 0.054,-0.18 0.132,-0.234 0.12,0.036 0.24,0.048 0.378,0.048 0.798,0 1.278,-0.45 1.278,-1.068 0,-0.396 -0.192,-0.642 -0.576,-0.816 0.378,0 0.678,-0.024 0.918,-0.108 z m -1.47,0.876 c 0.384,0 0.576,0.198 0.576,0.6 0,0.402 -0.198,0.63 -0.564,0.63 -0.354,0 -0.564,-0.24 -0.564,-0.624 0,-0.366 0.204,-0.606 0.552,-0.606 z m 2.850004,2.832 c 0.198,0 0.384,-0.048 0.516,-0.108 l -0.168,-0.54 c -0.048,0.018 -0.108,0.03 -0.174,0.03 -0.132,0 -0.18,-0.072 -0.18,-0.222 v -3.78 l -0.768,0.084 v 3.72 c 0,0.522 0.288,0.816 0.774,0.816 z m 3.63001,-1.752 c 0,-1.002 -0.51,-1.602 -1.398,-1.602 -0.9,0 -1.41,0.732 -1.41,1.698 0,1.002 0.528,1.656 1.512,1.656 0.48,0 0.864,-0.174 1.176,-0.426 l -0.318,-0.438 c -0.276,0.192 -0.51,0.282 -0.792,0.282 -0.42,0 -0.72,-0.21 -0.78,-0.858 h 1.992 c 0.006,-0.084 0.018,-0.21 0.018,-0.312 z m -0.762,-0.186 h -1.248 c 0.042,-0.63 0.27,-0.87 0.63,-0.87 0.432,0 0.618,0.312 0.618,0.834 z m 3.083999,-1.416 c -0.366,0 -0.672,0.168 -0.876,0.45 v -1.716 l -0.768,0.084 v 4.446 h 0.678 l 0.048,-0.324 c 0.204,0.258 0.492,0.414 0.84,0.414 0.78,0 1.254,-0.69 1.254,-1.68 0,-1.062 -0.438,-1.674 -1.176,-1.674 z m -0.288,2.778 c -0.24,0 -0.45,-0.138 -0.588,-0.366 v -1.404 c 0.15,-0.246 0.354,-0.432 0.63,-0.432 0.366,0 0.618,0.252 0.618,1.098 0,0.798 -0.27,1.104 -0.66,1.104 z m 3.744004,-2.772 c -0.372,0 -0.678,0.252 -0.828,0.708 l -0.072,-0.624 h -0.666 v 3.174 h 0.768 v -1.692 c 0.12,-0.534 0.318,-0.816 0.702,-0.816 0.114,0 0.186,0.012 0.282,0.036 l 0.132,-0.744 c -0.102,-0.03 -0.204,-0.042 -0.318,-0.042 z m 2.346005,2.616 c -0.138,0.078 -0.258,0.114 -0.378,0.114 -0.234,0 -0.336,-0.126 -0.336,-0.438 v -1.656 h 0.66 l 0.078,-0.552 h -0.738 v -0.792 l -0.768,0.09 v 0.702 h -0.498 v 0.552 h 0.498 v 1.674 c 0,0.678 0.33,1.032 0.954,1.038 0.282,0 0.57,-0.078 0.798,-0.24 z"
     id="text1"
     inkscape:label="glebsite path"
     transform="rotate(-30)"
     aria-label="github.com/gl-eb/glebrt"
     sodipodi:insensitive="true" /><path
     style="font-weight:bold;font-size:34px;font-family:'Fira Sans';-inkscape-font-specification:'Fira Sans, Bold';text-align:center;text-anchor:middle;white-space:pre;fill:#000000;fill-opacity:1;stroke:none;stroke-width:0.75"
     d="m 32.207464,58.609997 c -2.176,1.292 -4.488,2.448 -8.5,2.346 -4.726,0 -7.922,2.516 -7.922,6.596 0,2.346 0.918,3.944 3.23,5.168 -1.292,0.816 -2.142,2.142 -2.142,3.468 0,1.938 1.598,3.57 5.542,3.57 h 2.618 c 1.802,0 2.584,0.714 2.584,1.768 0,1.156 -0.748,2.04 -3.91,2.04 -3.264,0 -3.944,-0.68 -3.944,-2.244 h -4.828 c 0,3.57 1.802,5.814 8.636,5.814 6.188,0 9.452,-2.278 9.452,-5.984 0,-3.026 -2.686,-5.236 -6.902,-5.236 h -2.72 c -1.734,0 -1.972,-0.544 -1.972,-1.088 0,-0.408 0.204,-0.816 0.578,-1.02 0.646,0.136 1.326,0.204 2.074,0.204 4.692,0 7.582,-2.55 7.582,-6.052 0,-2.346 -1.122,-3.672 -3.4,-4.658 2.278,0 3.944,-0.204 5.202,-0.714 z m -8.364,5.882 c 1.802,0 2.72,0.918 2.72,2.924 0,2.074 -0.952,3.128 -2.72,3.128 -1.632,0 -2.72,-1.088 -2.72,-3.06 0,-1.87 1.054,-2.992 2.72,-2.992 z m 16.422021,15.674 c 1.326,0 2.482,-0.272 3.264,-0.612 l -1.02,-3.808 c -0.238,0.102 -0.544,0.17 -0.884,0.17 -0.646,0 -0.952,-0.374 -0.952,-1.122 v -21.012 l -5.372,0.578 v 20.638 c 0,3.298 1.836,5.168 4.964,5.168 z m 21.080002,-9.962 c 0,-5.848 -3.162,-9.248 -8.33,-9.248 -5.474,0 -8.432,4.284 -8.432,9.69 0,5.644 3.06,9.52 9.078,9.52 2.924,0 5.236,-1.088 7.038,-2.516 l -2.21,-2.992 c -1.564,1.088 -2.856,1.598 -4.318,1.598 -2.21,0 -3.74,-0.884 -4.08,-4.114 h 11.152 c 0.068,-0.544 0.102,-1.36 0.102,-1.938 z m -5.27,-1.292 h -6.018 c 0.272,-3.264 1.292,-4.386 3.094,-4.386 2.142,0 2.89,1.7 2.924,4.148 z m 18.564029,-7.956 c -2.006,0 -3.774,0.918 -4.862,2.414 v -9.588 l -5.372,0.578 v 25.228 h 4.76 l 0.272,-1.734 c 1.088,1.428 2.72,2.312 4.726,2.312 4.488,0 7.174,-4.012 7.174,-9.588 0,-6.052 -2.38,-9.622 -6.698,-9.622 z m -2.04,15.3 c -1.156,0 -2.142,-0.646 -2.822,-1.734 v -7.514 c 0.782,-1.326 1.836,-2.108 3.06,-2.108 1.7,0 2.924,1.088 2.924,5.678 0,4.216 -1.292,5.678 -3.162,5.678 z m 21.691987,-15.232 c -2.074,0 -3.842,1.496 -4.658,4.012 l -0.476,-3.502 h -4.658 v 18.054 h 5.372 v -9.078 c 0.612,-2.686 1.53,-4.284 3.74,-4.284 0.578,0 1.054,0.102 1.632,0.238 l 0.85,-5.202 c -0.612,-0.17 -1.122,-0.238 -1.802,-0.238 z m 13.361987,14.314 c -0.714,0.408 -1.326,0.578 -1.938,0.578 -1.122,0 -1.7,-0.612 -1.7,-2.346 v -8.296 h 3.57 l 0.578,-3.74 h -4.148 v -4.522 l -5.372004,0.612 v 3.91 h -2.55 v 3.74 h 2.55 v 8.364 c 0,4.25 1.938004,6.494 5.916004,6.528 1.632,0 3.536,-0.476 4.896,-1.428 z"
     id="text2"
     inkscape:label="tecanr path"
     aria-label="glebrt"
     sodipodi:insensitive="true" /></svg>
